<svg width="30" height="20" viewBox="0 0 40 30" fill="none" xmlns="http://www.w3.org/2000/svg">
<g clip-path="url(#clip0_34_2)">
<path d="M9.04747 29.8524V14.4777L4.27933 10.1156L0.00363159 7.69495V27.1391C0.00363159 28.6404 1.21995 29.8524 2.71684 29.8524H9.04747Z" fill="#4285F4"/>
<path d="M30.7525 29.8523H37.0832C38.5846 29.8523 39.7964 28.6358 39.7964 27.1391V7.69507L34.9535 10.4677L30.7525 14.4777V29.8523Z" fill="#34A853"/>
<path d="M9.04746 14.4777L8.39865 8.47041L9.04746 2.72083L19.9 10.8603L30.7525 2.72083L31.4783 8.16L30.7525 14.4777L19.9 22.6172L9.04746 14.4777Z" fill="#EA4335"/>
<path d="M30.7525 2.72084V14.4777L39.7964 7.69494V4.07737C39.7964 0.722189 35.9663 -1.19051 33.285 0.821671L30.7525 2.72084Z" fill="#FBBC04"/>
<path d="M0.00363159 7.69495L4.16306 10.8146L9.04747 14.4777V2.72085L6.51503 0.821681C3.82902 -1.19065 0.00363159 0.722199 0.00363159 4.07723V7.69479V7.69495Z" fill="#C5221F"/>
</g>
<defs>
<clipPath id="clip0_34_2">
<rect width="39.8" height="30" fill="white"/>
</clipPath>
</defs>
</svg>
