<svg width="20" height="20" viewBox="0 0 28 25" fill="none" xmlns="http://www.w3.org/2000/svg">
<path d="M27.7649 22.1363L27.6862 19.1373C27.6757 18.7396 27.5078 18.3624 27.2192 18.0886C26.9306 17.8147 26.545 17.6668 26.1473 17.6772L0.668115 18.346L0.825555 24.3439L26.3048 23.6751C26.7025 23.6647 27.0797 23.4967 27.3535 23.2081C27.6274 22.9195 27.7753 22.534 27.7649 22.1363ZM18.5318 13.3756L18.4531 10.3766C18.4427 9.9789 18.2747 9.60165 17.9861 9.32782C17.6975 9.054 17.312 8.90603 16.9143 8.91647L0.431953 9.34911L0.589394 15.347L17.0717 14.9144C17.4694 14.904 17.8467 14.736 18.1205 14.4474C18.3943 14.1588 18.5423 13.7732 18.5318 13.3756ZM9.29878 4.61482L9.22006 1.61585C9.20962 1.21816 9.04163 0.840909 8.75304 0.567083C8.46445 0.293257 8.0789 0.145287 7.68121 0.155726L0.195792 0.352212L0.353233 6.35015L7.83866 6.15366C8.23634 6.14322 8.6136 5.97523 8.88742 5.68664C9.16125 5.39805 9.30922 5.0125 9.29878 4.61482Z" fill="white"/>
</svg>
