<svg width="20" height="20" viewBox="0 0 30 30" fill="none" xmlns="http://www.w3.org/2000/svg">
<path d="M12.1375 7.8625C12.0213 7.74534 11.883 7.65235 11.7307 7.58889C11.5784 7.52543 11.415 7.49275 11.25 7.49275C11.085 7.49275 10.9216 7.52543 10.7693 7.58889C10.6169 7.65235 10.4787 7.74534 10.3625 7.8625L4.11248 14.1125C3.99532 14.2287 3.90233 14.367 3.83887 14.5193C3.77541 14.6716 3.74274 14.835 3.74274 15C3.74274 15.165 3.77541 15.3284 3.83887 15.4807C3.90233 15.633 3.99532 15.7713 4.11248 15.8875L10.3625 22.1375C10.4787 22.2547 10.6169 22.3477 10.7693 22.4111C10.9216 22.4746 11.085 22.5072 11.25 22.5072C11.415 22.5072 11.5784 22.4746 11.7307 22.4111C11.883 22.3477 12.0213 22.2547 12.1375 22.1375C12.2546 22.0213 12.3476 21.883 12.4111 21.7307C12.4746 21.5784 12.5072 21.415 12.5072 21.25C12.5072 21.085 12.4746 20.9216 12.4111 20.7693C12.3476 20.617 12.2546 20.4787 12.1375 20.3625L6.76248 15L12.1375 9.6375C12.2546 9.5213 12.3476 9.38305 12.4111 9.23072C12.4746 9.0784 12.5072 8.91501 12.5072 8.75C12.5072 8.58499 12.4746 8.4216 12.4111 8.26928C12.3476 8.11695 12.2546 7.9787 12.1375 7.8625ZM25.8875 14.1125L19.6375 7.8625C19.5209 7.74595 19.3826 7.6535 19.2303 7.59043C19.078 7.52735 18.9148 7.49489 18.75 7.49489C18.4171 7.49489 18.0979 7.62712 17.8625 7.8625C17.7459 7.97905 17.6535 8.11741 17.5904 8.26969C17.5273 8.42197 17.4949 8.58518 17.4949 8.75C17.4949 9.08288 17.6271 9.40212 17.8625 9.6375L23.2375 15L17.8625 20.3625C17.7453 20.4787 17.6523 20.617 17.5889 20.7693C17.5254 20.9216 17.4927 21.085 17.4927 21.25C17.4927 21.415 17.5254 21.5784 17.5889 21.7307C17.6523 21.883 17.7453 22.0213 17.8625 22.1375C17.9787 22.2547 18.1169 22.3477 18.2693 22.4111C18.4216 22.4746 18.585 22.5072 18.75 22.5072C18.915 22.5072 19.0784 22.4746 19.2307 22.4111C19.383 22.3477 19.5213 22.2547 19.6375 22.1375L25.8875 15.8875C26.0046 15.7713 26.0976 15.633 26.1611 15.4807C26.2246 15.3284 26.2572 15.165 26.2572 15C26.2572 14.835 26.2246 14.6716 26.1611 14.5193C26.0976 14.367 26.0046 14.2287 25.8875 14.1125Z" fill="white"/>
</svg>
