<svg width="15" height="15" viewBox="0 0 30 30" fill="none" xmlns="http://www.w3.org/2000/svg">
<path d="M8.18182 21.8182V24.5455H5.45455V21.8182H8.18182ZM8.18182 5.45455V8.18182H5.45455V5.45455H8.18182ZM24.5455 5.45455V8.18182H21.8182V5.45455H24.5455ZM2.72727 27.2514H10.9091V19.0909H2.72727V27.2514ZM2.72727 10.9091H10.9091V2.72727H2.72727V10.9091ZM19.0909 10.9091H27.2727V2.72727H19.0909V10.9091ZM13.6364 16.3636V30H0V16.3636H13.6364ZM24.5455 27.2727V30H21.8182V27.2727H24.5455ZM30 27.2727V30H27.2727V27.2727H30ZM30 16.3636V24.5455H21.8182V21.8182H19.0909V30H16.3636V16.3636H24.5455V19.0909H27.2727V16.3636H30ZM13.6364 0V13.6364H0V0H13.6364ZM30 0V13.6364H16.3636V0H30Z" fill="white"/>
</svg>
