<svg width="20" height="20" viewBox="0 0 20 20" fill="none" xmlns="http://www.w3.org/2000/svg">
<path d="M18.3891 7.69764C18.3337 7.52159 18.2268 7.36617 18.0823 7.25142C17.9377 7.13668 17.7621 7.06787 17.5781 7.05389L12.9336 6.65233C12.8771 6.64708 12.8232 6.62656 12.7775 6.59298C12.7318 6.5594 12.6961 6.51402 12.6742 6.4617L10.8594 2.13749C10.7885 1.96739 10.6688 1.82208 10.5154 1.71986C10.3621 1.61765 10.1819 1.56311 9.99765 1.56311C9.81336 1.56311 9.63319 1.61765 9.47985 1.71986C9.3265 1.82208 9.20684 1.96739 9.13593 2.13749L7.32343 6.4617C7.30156 6.51402 7.26586 6.5594 7.22017 6.59298C7.17448 6.62656 7.12051 6.64708 7.06405 6.65233L2.42186 7.05389C2.23748 7.06901 2.06168 7.13835 1.91662 7.25317C1.77155 7.368 1.66371 7.52318 1.60666 7.69917C1.54961 7.87516 1.54591 8.0641 1.59602 8.24219C1.64613 8.42028 1.74782 8.57957 1.88827 8.69999L5.41171 11.7742C5.45571 11.8119 5.48836 11.8611 5.50602 11.9163C5.52368 11.9715 5.52565 12.0305 5.51171 12.0867L4.45311 16.6578C4.40949 16.8382 4.42093 17.0275 4.48597 17.2013C4.551 17.3751 4.66664 17.5254 4.81796 17.6328C4.96586 17.742 5.14313 17.8043 5.32684 17.8117C5.51054 17.8191 5.69224 17.7712 5.84843 17.6742L9.84061 15.2523C9.88854 15.2228 9.94371 15.2072 9.99999 15.2072C10.0563 15.2072 10.1114 15.2228 10.1594 15.2523L14.1516 17.6742C14.3094 17.7688 14.4915 17.8149 14.6753 17.8067C14.8592 17.7985 15.0365 17.7363 15.1853 17.6281C15.334 17.5198 15.4476 17.3701 15.5119 17.1977C15.5762 17.0253 15.5884 16.8378 15.5469 16.6586L14.4906 12.0851C14.4767 12.0289 14.4786 11.9699 14.4963 11.9147C14.514 11.8595 14.5466 11.8103 14.5906 11.7726L18.1141 8.69842C18.2543 8.57792 18.3554 8.41831 18.4044 8.24002C18.4533 8.06173 18.448 7.87288 18.3891 7.69764ZM17.7031 8.22889L14.1797 11.3031C14.0507 11.415 13.9547 11.56 13.9021 11.7225C13.8495 11.885 13.8423 12.0587 13.8812 12.225L14.9375 16.7969C14.9522 16.8575 14.9485 16.9211 14.9268 16.9796C14.9051 17.0381 14.8664 17.0887 14.8156 17.125C14.7669 17.1611 14.7084 17.1817 14.6477 17.1841C14.5871 17.1865 14.5272 17.1705 14.4758 17.1383L10.4836 14.7164C10.3379 14.6275 10.1706 14.5804 9.99999 14.5804C9.82936 14.5804 9.66203 14.6275 9.5164 14.7164L5.52421 17.1383C5.4728 17.1705 5.41287 17.1865 5.35224 17.1841C5.29161 17.1817 5.2331 17.1611 5.18436 17.125C5.13362 17.0887 5.0949 17.0381 5.07318 16.9796C5.05146 16.9211 5.04773 16.8575 5.06249 16.7969L6.11874 12.2234C6.15767 12.0572 6.15045 11.8834 6.09786 11.7209C6.04526 11.5585 5.94929 11.4135 5.8203 11.3015L2.29686 8.22889C2.24943 8.18819 2.21529 8.1342 2.19886 8.0739C2.18243 8.01359 2.18445 7.94975 2.20468 7.89061C2.22353 7.83243 2.25905 7.78106 2.30682 7.74287C2.35459 7.70468 2.41252 7.68135 2.47343 7.67577L7.11796 7.2742C7.28781 7.25906 7.45031 7.19788 7.58797 7.09725C7.72563 6.99662 7.83324 6.86035 7.89921 6.70311L9.71327 2.37811C9.73772 2.32266 9.77777 2.27551 9.82854 2.24241C9.87931 2.20931 9.9386 2.19169 9.99921 2.19169C10.0598 2.19169 10.1191 2.20931 10.1699 2.24241C10.2206 2.27551 10.2607 2.32266 10.2851 2.37811L12.0992 6.70311C12.1652 6.86035 12.2728 6.99662 12.4104 7.09725C12.5481 7.19788 12.7106 7.25906 12.8805 7.2742L17.525 7.67577C17.5859 7.68135 17.6438 7.70468 17.6916 7.74287C17.7394 7.78106 17.7749 7.83243 17.7937 7.89061C17.8141 7.9496 17.8164 8.01335 17.8003 8.07364C17.7841 8.13393 17.7503 8.188 17.7031 8.22889Z" fill="black"/>
</svg>
